<?xml version="1.0" standalone="no"?>
<!DOCTYPE svg PUBLIC "-//W3C//DTD SVG 20010904//EN"
 "http://www.w3.org/TR/2001/REC-SVG-20010904/DTD/svg10.dtd">
<svg version="1.0" xmlns="http://www.w3.org/2000/svg"
 width="70.000000pt" height="70.000000pt" viewBox="0 0 70.000000 70.000000"
 preserveAspectRatio="xMidYMid meet">
<metadata>
Created by potrace 1.14, written by Peter Selinger 2001-2017
</metadata>
<g transform="translate(0.000000,70.000000) scale(0.100000,-0.100000)"
fill="#000000" stroke="none">
<path d="M0 460 c0 -5 9 -10 20 -10 14 0 27 -14 42 -45 12 -25 25 -45 28 -45
4 0 15 19 26 43 13 28 26 43 42 45 21 3 22 1 22 -83 0 -77 -2 -86 -17 -83 -13
2 -20 16 -23 43 l-5 40 -14 -32 c-18 -45 -45 -43 -64 5 l-16 37 0 -47 c-1 -41
-4 -48 -21 -48 -15 0 -20 -7 -20 -25 l0 -25 350 0 350 0 0 120 0 120 -350 0
c-227 0 -350 -4 -350 -10z m495 -23 c28 -21 10 -39 -31 -31 -40 7 -64 -8 -64
-40 0 -46 66 -67 72 -24 2 13 11 24 21 26 26 5 24 -63 -2 -78 -50 -26 -122 3
-135 55 -18 70 80 134 139 92z m-173 -44 c22 -20 23 -70 1 -95 -19 -21 -71
-24 -96 -5 -47 36 -16 117 45 117 17 0 40 -7 50 -17z m328 -3 c24 -24 26 -67
3 -92 -22 -24 -77 -24 -103 2 -41 41 -10 110 50 110 17 0 39 -9 50 -20z"/>
<path d="M254 366 c-10 -26 1 -51 21 -51 37 0 29 64 -8 65 -4 0 -10 -6 -13
-14z"/>
<path d="M582 368 c-16 -16 -15 -33 4 -48 22 -19 54 12 38 37 -14 22 -27 26
-42 11z"/>
</g>
</svg>
